<?xml version="1.0" encoding="UTF-8" standalone="no"?>
<!DOCTYPE svg PUBLIC "-//W3C//DTD SVG 1.1//EN" "http://www.w3.org/Graphics/SVG/1.1/DTD/svg11.dtd">
<svg width="100%" height="100%" viewBox="0 0 1080 1080" version="1.1" xmlns="http://www.w3.org/2000/svg" xmlns:xlink="http://www.w3.org/1999/xlink" xml:space="preserve" xmlns:serif="http://www.serif.com/" style="fill-rule:evenodd;clip-rule:evenodd;stroke-linejoin:round;stroke-miterlimit:2;">
    <g id="SSL-Logo" serif:id="SSL Logo" transform="matrix(1.56635,0,0,1.56635,-1466.11,-309.146)">
        <g transform="matrix(1.5388,0,0,1.51952,-527.27,-398.299)">
            <circle cx="1174.96" cy="618.889" r="214.96" style="fill:rgb(189,149,35);"/>
        </g>
        <g transform="matrix(1.23697,0,0,1.22785,-172.632,-219.905)">
            <path d="M950.673,600.243C951.075,600.282 951.472,599.953 951.511,599.548L951.98,594.689C952.019,594.284 951.692,593.884 951.29,593.844L929.806,591.74L930.366,585.944C930.409,585.499 930.078,585.139 929.676,585.099L925.295,584.67C924.893,584.631 924.5,584.92 924.457,585.366L922.721,603.356C922.677,603.802 923.008,604.162 923.41,604.201L927.791,604.63C928.193,604.669 928.587,604.381 928.63,603.935L929.189,598.139L950.673,600.243Z" style="fill:rgb(7,11,81);fill-rule:nonzero;"/>
            <path d="M952.603,582.036C952.998,582.125 953.432,581.847 953.52,581.45L954.565,576.724C954.662,576.287 954.377,575.889 953.983,575.801L943.606,573.471L946.122,562.099L956.498,564.428C956.893,564.517 957.318,564.279 957.415,563.842L958.46,559.116C958.548,558.719 958.272,558.282 957.878,558.193L931.765,552.33C931.37,552.242 930.936,552.519 930.848,552.917L929.802,557.643C929.706,558.079 929.991,558.477 930.385,558.565L940.327,560.798L937.812,572.17L927.869,569.938C927.475,569.849 927.049,570.087 926.953,570.524L925.907,575.25C925.819,575.647 926.095,576.085 926.49,576.173L952.603,582.036Z" style="fill:rgb(7,11,81);fill-rule:nonzero;"/>
            <path d="M960.446,550.129C960.825,550.27 961.278,550.092 961.432,549.672L967.226,533.861C967.38,533.44 967.151,533.008 966.772,532.867L962.642,531.331C962.263,531.19 961.81,531.369 961.656,531.789L957.778,542.371L952.654,540.466L955.846,531.756C955.986,531.374 955.809,530.917 955.392,530.762L951.263,529.226C950.884,529.085 950.417,529.302 950.277,529.684L947.085,538.394L942.378,536.644L946.256,526.062C946.41,525.642 946.181,525.209 945.802,525.068L941.672,523.532C941.293,523.392 940.84,523.57 940.686,523.991L934.892,539.802C934.738,540.222 934.968,540.654 935.346,540.795L960.446,550.129Z" style="fill:rgb(7,11,81);fill-rule:nonzero;"/>
            <path d="M971.054,518.706C972.315,518.334 975.625,516.82 978.149,512.175C981.002,506.925 979.045,501.716 975.394,499.702C970.571,497.042 966.002,500.274 963.388,502.453C960.718,504.652 959.143,505.176 957.83,504.452C956.873,503.924 956.546,502.489 957.246,501.202C958.431,499.022 961.798,497.491 962.15,497.268C962.573,497.084 962.603,496.265 962.349,495.8L960.608,492.474C960.438,492.195 959.839,491.772 959.359,492.063C957.997,492.704 954.568,494.524 952.548,498.239C949.559,503.74 951.607,508.442 955.117,510.378C959.372,512.726 963.844,510.182 966.719,507.775C968.998,505.873 970.812,505.247 972.302,506.069C973.543,506.754 973.866,508.28 973.089,509.71C971.807,512.069 968.53,513.602 968.382,513.706C968.069,513.858 967.629,514.497 967.935,515.037L969.965,518.337C970.306,518.896 970.506,518.867 971.054,518.706Z" style="fill:rgb(7,11,81);fill-rule:nonzero;"/>
            <path d="M984.915,498.321C985.253,498.545 985.756,498.442 985.979,498.102L988.651,494.028C988.873,493.689 988.77,493.181 988.433,492.957L966.11,478.1C965.773,477.876 965.269,477.979 965.047,478.319L962.375,482.393C962.152,482.732 962.256,483.24 962.593,483.464L984.915,498.321Z" style="fill:rgb(7,11,81);fill-rule:nonzero;"/>
            <path d="M991.511,487.366C991.862,487.768 992.374,487.723 992.686,487.348L995.749,483.665C996.009,483.353 995.969,482.894 995.747,482.653L987.317,473.2L987.369,473.138L1001.79,476.335C1002.06,476.398 1002.42,476.279 1002.58,476.092L1003.04,475.53C1003.17,475.374 1003.25,474.962 1003.14,474.712L997.467,460.996L997.519,460.933L1008.26,467.609C1008.53,467.787 1009.01,467.715 1009.25,467.434L1012.31,463.751C1012.62,463.376 1012.58,462.86 1012.12,462.583L988.373,448.538C988.068,448.334 987.618,448.432 987.41,448.681L986.995,449.181C986.865,449.337 986.755,449.723 986.863,449.973L994.223,468.511L994.171,468.573L974.766,464.518C974.502,464.455 974.144,464.631 974.015,464.787L973.599,465.287C973.392,465.537 973.375,466.001 973.628,466.267L991.511,487.366Z" style="fill:rgb(7,11,81);fill-rule:nonzero;"/>
            <path d="M1010.24,450.715C1014.31,455.354 1021.52,455.778 1026.28,451.545C1031.07,447.286 1031.58,439.996 1027.51,435.356L1016.46,422.749C1016.19,422.444 1015.68,422.411 1015.38,422.681L1011.65,425.993C1011.32,426.289 1011.32,426.78 1011.59,427.085L1022.42,439.448C1024.29,441.585 1024.18,444.723 1022,446.665C1019.85,448.579 1016.77,448.272 1014.9,446.135L1004.07,433.772C1003.8,433.467 1003.32,433.408 1002.98,433.704L999.259,437.016C998.956,437.285 998.925,437.803 999.192,438.108L1010.24,450.715Z" style="fill:rgb(7,11,81);fill-rule:nonzero;"/>
            <path d="M1040.41,438.294C1040.64,438.629 1041.12,438.747 1041.48,438.494L1054.01,429.839C1054.38,429.586 1054.44,429.099 1054.21,428.764L1051.72,425.106C1051.5,424.771 1051.02,424.653 1050.66,424.906L1042.72,430.386L1030.52,412.451C1030.29,412.115 1029.78,412.02 1029.45,412.25L1025.49,414.988C1025.12,415.241 1025.06,415.728 1025.29,416.064L1040.41,438.294Z" style="fill:rgb(7,11,81);fill-rule:nonzero;"/>
            <path d="M1057.38,427.436L1061.3,425.321C1062.02,424.936 1062.18,424.294 1062.13,423.767L1061.88,420.203L1071.58,414.973L1074.37,417.117C1075.05,417.626 1075.45,417.687 1076.09,417.341L1080.04,415.207C1080.58,414.919 1080.62,414.298 1080.15,413.947L1056.16,395.811C1055.94,395.654 1055.59,395.609 1055.34,395.743L1054.99,395.936C1054.74,396.07 1054.58,396.384 1054.59,396.657L1056.28,426.829C1056.32,427.411 1056.85,427.724 1057.38,427.436ZM1061.43,414.172L1060.95,406.807L1060.99,406.788L1066.84,411.25L1061.43,414.172Z" style="fill:rgb(7,11,81);fill-rule:nonzero;"/>
            <path d="M1086.44,411.874C1086.6,412.251 1087.07,412.451 1087.45,412.297L1091.93,410.449C1092.31,410.295 1092.51,409.817 1092.35,409.44L1084.18,389.313L1089.53,387.109C1089.94,386.939 1090.1,386.477 1089.95,386.1L1088.29,381.995C1088.13,381.619 1087.69,381.403 1087.28,381.573L1070.68,388.415C1070.27,388.585 1070.1,389.047 1070.26,389.424L1071.92,393.528C1072.08,393.905 1072.51,394.121 1072.92,393.951L1078.27,391.747L1086.44,411.874Z" style="fill:rgb(7,11,81);fill-rule:nonzero;"/>
            <path d="M1103,405.541C1103.12,405.928 1103.58,406.166 1103.96,406.042L1108.58,404.556C1108.96,404.432 1109.2,403.971 1109.07,403.584L1100.93,377.91C1100.81,377.522 1100.35,377.285 1099.96,377.409L1095.35,378.895C1094.96,379.019 1094.73,379.479 1094.85,379.867L1103,405.541Z" style="fill:rgb(7,11,81);fill-rule:nonzero;"/>
            <path d="M1112.04,388.306C1113.68,396.284 1121.27,401.311 1129.19,399.663C1137.11,398.015 1142.14,390.362 1140.5,382.383C1138.86,374.405 1131.22,369.306 1123.3,370.955C1115.38,372.603 1110.41,380.327 1112.04,388.306ZM1118.37,386.989C1117.47,382.601 1120.29,378.229 1124.61,377.33C1128.96,376.424 1133.27,379.312 1134.17,383.7C1135.06,388.049 1132.24,392.381 1127.88,393.287C1123.56,394.185 1119.26,391.337 1118.37,386.989Z" style="fill:rgb(7,11,81);fill-rule:nonzero;"/>
            <path d="M1149.59,394.878C1149.62,395.285 1150,395.629 1150.4,395.606L1155.2,395.326C1155.64,395.3 1155.94,394.916 1155.92,394.509L1155.05,379.348L1155.09,379.346L1171.96,394.553C1172.05,394.629 1172.37,394.733 1172.5,394.726L1173.14,394.688C1173.54,394.664 1173.89,394.318 1173.87,393.912L1172.29,366.557C1172.27,366.15 1171.89,365.806 1171.48,365.829L1166.64,366.111C1166.2,366.137 1165.9,366.522 1165.92,366.928L1166.75,381.358L1166.71,381.36L1149.71,366.691L1148.7,366.749C1148.3,366.773 1147.96,367.119 1147.98,367.526L1149.59,394.878Z" style="fill:rgb(7,11,81);fill-rule:nonzero;"/>
            <path d="M1190.14,392.153C1190.97,393.182 1193.63,395.675 1198.86,396.231C1204.77,396.861 1208.78,393.033 1209.22,388.863C1209.8,383.354 1205.08,380.353 1202.07,378.763C1199.03,377.128 1197.94,375.866 1198.1,374.367C1198.21,373.273 1199.4,372.417 1200.85,372.571C1203.3,372.832 1206,375.373 1206.34,375.614C1206.68,375.936 1207.44,375.648 1207.77,375.232L1210.14,372.333C1210.33,372.067 1210.49,371.347 1210.04,371.012C1208.92,369.994 1205.93,367.508 1201.75,367.062C1195.56,366.403 1192.05,370.12 1191.62,374.128C1191.12,378.989 1195.17,382.165 1198.48,383.91C1201.1,385.295 1202.37,386.741 1202.19,388.443C1202.05,389.86 1200.77,390.749 1199.16,390.578C1196.51,390.295 1193.84,387.84 1193.69,387.742C1193.43,387.509 1192.67,387.347 1192.3,387.84L1190.06,390.999C1189.68,391.531 1189.78,391.706 1190.14,392.153Z" style="fill:rgb(7,11,81);fill-rule:nonzero;"/>
            <path d="M1215.65,383.37C1213.8,391.302 1218.59,399.077 1226.46,400.935C1234.34,402.794 1242.1,397.979 1243.94,390.048C1245.79,382.116 1240.98,374.252 1233.1,372.394C1225.23,370.535 1217.49,375.438 1215.65,383.37ZM1221.94,384.855C1222.95,380.492 1227.34,377.72 1231.63,378.732C1235.96,379.754 1238.66,384.2 1237.65,388.562C1236.64,392.885 1232.27,395.619 1227.94,394.596C1223.65,393.584 1220.93,389.178 1221.94,384.855Z" style="fill:rgb(7,11,81);fill-rule:nonzero;"/>
            <path d="M1249.77,392.022C1246.86,399.621 1250.61,408.018 1258.15,410.953C1261.51,412.26 1265.2,412.345 1268.72,410.839C1269.09,410.676 1269.32,410.197 1269.15,409.828L1267.42,405.531C1267.3,405.177 1266.81,404.987 1266.46,405.112C1264.65,405.761 1262.48,405.659 1260.71,404.969C1256.44,403.31 1254.62,398.581 1256.24,394.364C1257.87,390.108 1262.37,387.755 1266.63,389.414C1268.48,390.133 1270.06,391.536 1270.98,393.333C1271.14,393.702 1271.55,393.863 1271.92,393.7L1276.04,391.769C1276.46,391.582 1276.63,391.127 1276.41,390.691C1274.75,387.34 1272.41,385.077 1268.64,383.61C1261.1,380.674 1252.69,384.423 1249.77,392.022Z" style="fill:rgb(7,11,81);fill-rule:nonzero;"/>
            <path d="M1277.65,403.244C1273.82,410.414 1276.49,419.219 1283.6,423.085C1286.77,424.806 1290.42,425.359 1294.11,424.31C1294.49,424.195 1294.78,423.749 1294.66,423.363L1293.48,418.881C1293.4,418.514 1292.94,418.262 1292.57,418.342C1290.7,418.757 1288.56,418.381 1286.89,417.472C1282.87,415.287 1281.64,410.365 1283.78,406.385C1285.92,402.37 1290.68,400.605 1294.7,402.79C1296.45,403.738 1297.84,405.33 1298.53,407.229C1298.64,407.615 1299.03,407.828 1299.41,407.712L1303.74,406.318C1304.18,406.186 1304.41,405.756 1304.25,405.296C1303.02,401.761 1300.98,399.22 1297.42,397.286C1290.31,393.419 1281.5,396.074 1277.65,403.244Z" style="fill:rgb(7,11,81);fill-rule:nonzero;"/>
            <path d="M1297.92,430.158C1297.69,430.49 1297.74,430.977 1298.11,431.235L1311.76,440.972C1312.12,441.231 1312.6,441.12 1312.83,440.788L1315.38,437.168C1315.61,436.836 1315.55,436.349 1315.19,436.09L1306.05,429.574L1309.21,425.082L1316.73,430.446C1317.06,430.682 1317.54,430.628 1317.8,430.262L1320.34,426.642C1320.58,426.31 1320.49,425.8 1320.16,425.564L1312.64,420.201L1315.54,416.075L1324.67,422.592C1325.04,422.85 1325.51,422.74 1325.75,422.408L1328.29,418.788C1328.52,418.456 1328.47,417.968 1328.11,417.71L1314.45,407.973C1314.09,407.714 1313.61,407.825 1313.38,408.157L1297.92,430.158Z" style="fill:rgb(7,11,81);fill-rule:nonzero;"/>
            <path d="M1318.03,444.855C1317.77,445.156 1317.76,445.646 1318.09,445.945L1321.66,449.186C1321.96,449.458 1322.48,449.432 1322.75,449.131L1329.62,441.444L1331.69,443.326L1328.55,454.941C1328.5,455.116 1328.54,455.431 1328.78,455.649L1332.78,459.271C1333.29,459.734 1333.93,459.443 1334.07,458.86L1336.8,447.472C1340.36,448.783 1344.19,448.208 1346.7,445.407C1349.93,441.792 1349.61,436.191 1346.01,432.92L1337.03,424.771C1336.7,424.471 1336.21,424.526 1335.94,424.828L1318.03,444.855ZM1333.05,437.606L1337.3,432.852L1341.75,436.888C1342.98,438.006 1343.11,439.997 1341.96,441.277C1340.82,442.557 1338.73,442.76 1337.5,441.642L1333.05,437.606Z" style="fill:rgb(7,11,81);fill-rule:nonzero;"/>
            <path d="M1344.99,471.255C1344.67,471.511 1344.59,471.994 1344.87,472.342L1354.45,484.227C1354.73,484.575 1355.21,484.598 1355.53,484.341L1358.95,481.547C1359.26,481.29 1359.34,480.806 1359.06,480.459L1353,472.933L1369.76,459.231C1370.07,458.974 1370.12,458.459 1369.87,458.143L1366.84,454.383C1366.56,454.036 1366.08,454.014 1365.76,454.27L1344.99,471.255Z" style="fill:rgb(7,11,81);fill-rule:nonzero;"/>
            <path d="M1358.46,488.308C1358.12,488.531 1358,489.004 1358.24,489.378L1367.43,503.458C1367.68,503.833 1368.16,503.903 1368.5,503.68L1372.18,501.242C1372.51,501.019 1372.64,500.545 1372.39,500.171L1366.24,490.748L1370.8,487.723L1375.87,495.48C1376.09,495.82 1376.56,495.947 1376.93,495.701L1380.61,493.263C1380.95,493.04 1381.05,492.532 1380.83,492.192L1375.76,484.436L1379.95,481.658L1386.11,491.081C1386.35,491.455 1386.83,491.526 1387.17,491.302L1390.85,488.865C1391.19,488.641 1391.31,488.168 1391.07,487.794L1381.87,473.714C1381.63,473.34 1381.15,473.269 1380.81,473.493L1358.46,488.308Z" style="fill:rgb(7,11,81);fill-rule:nonzero;"/>
            <path d="M1369.83,507.098L1371.83,511.097C1372.19,511.824 1372.82,512.004 1373.35,511.966L1376.89,511.808L1381.84,521.698L1379.64,524.456C1379.12,525.131 1379.05,525.532 1379.38,526.187L1381.4,530.223C1381.67,530.768 1382.29,530.82 1382.65,530.364L1401.24,506.646C1401.4,506.427 1401.45,506.08 1401.32,505.826L1401.14,505.462C1401.02,505.208 1400.71,505.045 1400.44,505.046L1370.45,506.003C1369.88,506.023 1369.55,506.552 1369.83,507.098ZM1382.89,511.498L1390.21,511.2L1390.23,511.236L1385.65,517.025L1382.89,511.498Z" style="fill:rgb(7,11,81);fill-rule:nonzero;"/>
            <path d="M1395.86,528.307C1388.24,531.015 1384.37,539.292 1387.04,546.939C1388.99,552.506 1392.85,555.58 1392.85,555.58C1393.02,555.693 1393.38,555.738 1393.57,555.671L1403.81,551.991C1404.19,551.856 1404.42,551.427 1404.29,551.043L1401.59,543.328C1401.44,542.905 1401.03,542.707 1400.61,542.855L1396.84,544.194C1396.46,544.33 1396.26,544.745 1396.41,545.167L1397.25,547.586L1395.04,548.372C1394.18,547.383 1393.62,546.286 1393.23,545.172C1391.77,540.984 1394.01,536.344 1398.16,534.869C1402.35,533.379 1407.05,535.515 1408.51,539.703C1409.17,541.585 1409.27,543.45 1408.44,545.383C1408.32,545.771 1408.47,546.193 1408.84,546.405L1413.1,548.301C1413.52,548.499 1413.96,548.299 1414.11,547.859C1415.44,544.45 1415.54,540.445 1414.41,537.22C1411.73,529.574 1403.49,525.598 1395.86,528.307Z" style="fill:rgb(7,11,81);fill-rule:nonzero;"/>
            <path d="M1403.09,560.751C1397.07,561.985 1393.11,568.071 1394.38,574.337C1395.65,580.643 1401.67,584.725 1407.69,583.491L1424.05,580.137C1424.44,580.056 1424.73,579.624 1424.64,579.225L1423.65,574.321C1423.57,573.882 1423.14,573.636 1422.75,573.718L1406.71,577.006C1403.93,577.575 1401.29,575.913 1400.71,573.039C1400.14,570.204 1401.93,567.674 1404.71,567.105L1420.75,563.816C1421.14,563.735 1421.44,563.343 1421.35,562.905L1420.36,558C1420.28,557.602 1419.85,557.316 1419.45,557.397L1403.09,560.751Z" style="fill:rgb(7,11,81);fill-rule:nonzero;"/>
            <path d="M1398.73,593.301C1398.33,593.331 1397.99,593.682 1398.03,594.128L1399.24,610.938C1399.27,611.385 1399.66,611.683 1400.06,611.654L1404.45,611.332C1404.85,611.302 1405.19,610.951 1405.16,610.504L1404.35,599.254L1409.8,598.855L1410.46,608.115C1410.49,608.521 1410.84,608.863 1411.29,608.83L1415.67,608.508C1416.08,608.479 1416.41,608.087 1416.38,607.681L1415.72,598.421L1420.72,598.054L1421.53,609.304C1421.57,609.751 1421.95,610.049 1422.35,610.02L1426.74,609.698C1427.15,609.668 1427.49,609.317 1427.45,608.87L1426.24,592.06C1426.21,591.614 1425.82,591.316 1425.42,591.345L1398.73,593.301Z" style="fill:rgb(7,11,81);fill-rule:nonzero;"/>
        </g>
        <g transform="matrix(1.23697,0,0,1.22785,-172.632,-212.905)">
            <path d="M1103.86,855.486C1103.78,855.8 1103.95,856.151 1104.3,856.243L1117.23,859.719C1117.57,859.811 1117.89,859.595 1117.98,859.281L1118.89,855.853C1118.97,855.538 1118.8,855.188 1118.45,855.096L1109.8,852.769L1110.92,848.516L1118.05,850.431C1118.36,850.515 1118.71,850.339 1118.8,849.993L1119.71,846.565C1119.79,846.251 1119.58,845.892 1119.27,845.808L1112.15,843.893L1113.18,839.986L1121.84,842.312C1122.18,842.405 1122.51,842.189 1122.59,841.874L1123.5,838.447C1123.58,838.132 1123.4,837.782 1123.06,837.689L1110.13,834.214C1109.79,834.121 1109.46,834.337 1109.38,834.652L1103.86,855.486Z" style="fill:rgb(7,11,81);fill-rule:nonzero;"/>
            <path d="M1123.92,859.014C1124.52,859.884 1126.5,862.028 1130.63,862.779C1135.31,863.627 1138.74,860.808 1139.33,857.506C1140.11,853.144 1136.51,850.473 1134.21,849.029C1131.88,847.547 1131.08,846.476 1131.29,845.289C1131.45,844.423 1132.44,843.809 1133.59,844.017C1135.53,844.369 1137.54,846.554 1137.8,846.766C1138.05,847.043 1138.67,846.858 1138.95,846.545L1141.02,844.371C1141.18,844.17 1141.35,843.605 1141.01,843.311C1140.18,842.434 1137.94,840.275 1134.63,839.675C1129.73,838.786 1126.71,841.546 1126.14,844.719C1125.45,848.568 1128.5,851.339 1131.05,852.926C1133.06,854.184 1133.99,855.413 1133.75,856.76C1133.55,857.882 1132.48,858.516 1131.21,858.285C1129.11,857.904 1127.12,855.79 1127,855.702C1126.81,855.502 1126.22,855.328 1125.89,855.699L1123.92,858.089C1123.58,858.491 1123.65,858.636 1123.92,859.014Z" style="fill:rgb(7,11,81);fill-rule:nonzero;"/>
            <path d="M1147.66,864.319C1147.63,864.643 1147.89,864.963 1148.21,864.996L1152.07,865.382C1152.39,865.414 1152.71,865.151 1152.74,864.827L1154.44,847.516L1159.05,847.977C1159.4,848.012 1159.69,847.746 1159.72,847.422L1160.07,843.892C1160.1,843.568 1159.87,843.251 1159.52,843.215L1145.23,841.786C1144.88,841.75 1144.59,842.016 1144.56,842.34L1144.21,845.87C1144.18,846.194 1144.41,846.512 1144.76,846.547L1149.37,847.008L1147.66,864.319Z" style="fill:rgb(7,11,81);fill-rule:nonzero;"/>
            <path d="M1158.91,863.189C1158.83,864.847 1160.14,866.318 1161.79,866.404C1163.46,866.493 1164.96,865.169 1165.04,863.511C1165.13,861.82 1163.78,860.315 1162.11,860.227C1160.46,860.141 1159,861.498 1158.91,863.189Z" style="fill:rgb(7,11,81);fill-rule:nonzero;"/>
            <path d="M1176.42,865.905C1176.43,866.23 1176.7,866.514 1177.05,866.502L1189.98,866.056C1190.3,866.045 1190.58,865.742 1190.57,865.417L1190.47,862.489C1190.46,862.164 1190.16,861.881 1189.84,861.893L1184.15,862.089C1185.6,859.887 1188.13,856.311 1189.1,854.419C1189.82,852.861 1190.27,851.868 1190.21,850.142C1190.09,846.528 1187.28,843.662 1182.66,843.821C1178.81,843.954 1176.3,847.232 1176.3,847.232C1176.08,847.5 1176.13,847.889 1176.36,848.076L1178.4,850.027C1178.67,850.279 1179.06,850.265 1179.31,849.996C1179.9,849.291 1181.06,848.305 1182.39,848.259C1184.2,848.197 1185.27,849.269 1185.31,850.506C1185.34,851.418 1184.95,852.345 1184.55,853.01C1182.75,856.007 1178.19,862.718 1176.4,865.254L1176.42,865.905Z" style="fill:rgb(7,11,81);fill-rule:nonzero;"/>
            <path d="M1205.16,864.92C1210.39,864.281 1212.87,859.684 1212.01,852.599C1211.16,845.515 1207.67,841.646 1202.44,842.285C1197.2,842.924 1194.73,847.521 1195.58,854.605C1196.43,861.69 1199.92,865.558 1205.16,864.92ZM1204.6,860.234C1202.63,860.473 1201.26,858.245 1200.75,853.975C1200.24,849.737 1201.04,847.21 1203,846.971C1204.96,846.731 1206.34,848.992 1206.85,853.23C1207.36,857.5 1206.55,859.995 1204.6,860.234Z" style="fill:rgb(7,11,81);fill-rule:nonzero;"/>
            <path d="M1218.23,862.116C1218.29,862.435 1218.6,862.669 1218.95,862.597L1231.62,859.966C1231.93,859.9 1232.16,859.554 1232.09,859.236L1231.51,856.367C1231.44,856.048 1231.1,855.82 1230.78,855.886L1225.21,857.043C1226.27,854.628 1228.16,850.674 1228.8,848.644C1229.26,846.986 1229.54,845.93 1229.19,844.239C1228.46,840.698 1225.21,838.349 1220.69,839.29C1216.92,840.072 1214.99,843.729 1214.99,843.729C1214.82,844.03 1214.93,844.406 1215.19,844.551L1217.53,846.128C1217.83,846.331 1218.21,846.252 1218.42,845.944C1218.88,845.149 1219.86,843.98 1221.16,843.71C1222.93,843.342 1224.17,844.217 1224.42,845.429C1224.6,846.323 1224.37,847.302 1224.09,848.026C1222.81,851.286 1219.44,858.675 1218.1,861.479L1218.23,862.116Z" style="fill:rgb(7,11,81);fill-rule:nonzero;"/>
            <path d="M1240.08,857.091C1240.17,857.405 1240.49,857.619 1240.84,857.524L1244.29,856.569C1244.61,856.483 1244.78,856.132 1244.69,855.817L1239.21,835.65C1239.12,835.336 1238.79,835.122 1238.48,835.208L1235.62,836L1232.04,840.838C1231.97,840.958 1231.94,841.235 1231.98,841.361L1232.52,843.34C1232.6,843.654 1232.93,843.868 1233.24,843.782L1236.24,842.955L1240.08,857.091Z" style="fill:rgb(7,11,81);fill-rule:nonzero;"/>
        </g>
        <g transform="matrix(1.23697,0,0,1.22785,-172.632,-219.905)">
            <circle cx="1174.96" cy="618.889" r="214.96" style="fill:rgb(7,11,81);"/>
        </g>
        <g transform="matrix(1.1276,0,0,1.14036,-44.1269,-165.755)">
            <circle cx="1174.96" cy="618.889" r="214.96" style="fill:rgb(189,149,35);"/>
        </g>
        <g transform="matrix(1.51429,0,0,1,-514.395,-56.3012)">
            <clipPath id="_clip1">
                <ellipse cx="1185.48" cy="596.301" rx="242.389" ry="245.132"/>
            </clipPath>
            <g clip-path="url(#_clip1)">
                <path d="M1240.33,316.53C1203.76,305.472 1167.19,305.675 1130.62,316.53L1130.62,876.072C1167.19,916.612 1203.76,915.78 1240.33,876.072L1240.33,316.53Z" style="fill:rgb(7,11,81);"/>
            </g>
        </g>
        <g transform="matrix(0.17125,0,0,0.17125,1061.43,630.983)">
            <clipPath id="_clip2">
                <ellipse cx="1280.76" cy="540" rx="242.389" ry="245.132"/>
            </clipPath>
            <g clip-path="url(#_clip2)">
                <g transform="matrix(1,0,0,1,-52.5033,-51.1874)">
                    <path d="M1333.26,504.709L1424.19,570.773L1389.46,677.666L1277.06,677.666L1242.33,570.773L1333.26,504.709Z" style="fill:white;"/>
                </g>
                <g transform="matrix(1,0,0,-1,-52.5033,886.056)">
                    <path d="M1333.26,504.709L1424.19,570.773L1389.46,677.666L1277.06,677.666L1242.33,570.773L1333.26,504.709Z" style="fill:white;"/>
                </g>
                <g transform="matrix(0.36554,0.930796,0.930796,-0.36554,480.284,-564.278)">
                    <path d="M1333.26,504.709L1424.19,570.773L1389.46,677.666L1277.06,677.666L1242.33,570.773L1333.26,504.709Z" style="fill:white;"/>
                </g>
                <g transform="matrix(-0.36554,0.930796,-0.930796,-0.36554,2086.27,-564.278)">
                    <path d="M1333.26,504.709L1424.19,570.773L1389.46,677.666L1277.06,677.666L1242.33,570.773L1333.26,504.709Z" style="fill:white;"/>
                </g>
                <g transform="matrix(0.866025,-0.5,0.5,0.866025,-18.9923,905.274)">
                    <path d="M1333.26,504.709L1424.19,570.773L1389.46,677.666L1277.06,677.666L1242.33,570.773L1333.26,504.709Z" style="fill:white;"/>
                </g>
                <g transform="matrix(-0.866025,-0.5,-0.5,0.866025,2610.73,905.274)">
                    <path d="M1333.26,504.709L1424.19,570.773L1389.46,677.666L1277.06,677.666L1242.33,570.773L1333.26,504.709Z" style="fill:white;"/>
                </g>
            </g>
        </g>
        <g transform="matrix(0.697707,0,0,0.697707,699.053,164.675)">
            <path d="M793.72,318.884C797.785,322.948 810.511,332.492 833.51,332.492C859.512,332.492 875.243,314.112 875.243,295.895C875.243,271.832 853.325,261.039 839.53,255.554C825.543,249.892 820.232,244.938 820.232,238.391C820.232,233.614 825.012,229.367 831.386,229.367C842.186,229.367 855.093,239.099 856.684,239.984C858.275,241.222 861.456,239.63 862.693,237.684L871.708,224.065C872.415,222.828 872.769,219.647 870.648,218.41C865.345,214.522 851.204,205.156 832.802,205.156C805.562,205.156 791.952,222.828 791.952,240.338C791.952,261.57 811.041,273.424 826.251,279.44C838.291,284.217 844.487,289.879 844.487,297.31C844.487,303.503 839.353,307.927 832.271,307.927C820.586,307.927 807.859,298.549 807.152,298.195C805.915,297.31 802.557,296.957 801.143,299.257L792.836,313.935C791.421,316.409 791.952,317.116 793.72,318.884Z" style="fill:white;fill-rule:nonzero;"/>
            <path d="M793.72,495.77C797.785,499.834 810.511,509.378 833.51,509.378C859.512,509.378 875.243,490.998 875.243,472.781C875.243,448.718 853.325,437.925 839.53,432.44C825.543,426.778 820.232,421.824 820.232,415.277C820.232,410.5 825.012,406.253 831.386,406.253C842.186,406.253 855.093,415.985 856.684,416.87C858.275,418.108 861.456,416.516 862.693,414.57L871.708,400.951C872.415,399.714 872.769,396.533 870.648,395.296C865.345,391.408 851.204,382.042 832.802,382.042C805.562,382.042 791.952,399.714 791.952,417.224C791.952,438.456 811.041,450.31 826.251,456.326C838.291,461.103 844.487,466.765 844.487,474.197C844.487,480.389 839.353,484.813 832.271,484.813C820.586,484.813 807.859,475.435 807.152,475.081C805.915,474.197 802.557,473.843 801.143,476.143L792.836,490.821C791.421,493.296 791.952,494.002 793.72,495.77Z" style="fill:white;fill-rule:nonzero;"/>
            <path d="M803.184,681.137C803.184,682.904 804.598,684.495 806.543,684.495L873.032,684.495C874.978,684.495 876.393,682.904 876.393,681.137L876.393,661.873C876.393,660.106 874.978,658.515 873.032,658.515L830.933,658.515L830.933,564.058C830.933,562.289 829.343,560.697 827.575,560.697L806.543,560.697C804.598,560.697 803.184,562.289 803.184,564.058L803.184,681.137Z" style="fill:white;fill-rule:nonzero;"/>
        </g>
    </g>
</svg>
